<svg height="512" viewBox="0 0 512 512" width="512" xmlns="http://www.w3.org/2000/svg"><g id="BULINE"><circle cx="256" cy="256" fill="#7cc8fb" r="256"/></g><g id="Icons"><rect fill="#fab3a7" height="118" rx="5.71" width="126.57" x="19.6" y="119.41"/><path d="m146.17 221.24v10.47a5.71 5.71 0 0 1 -5.71 5.71h-115.15a5.71 5.71 0 0 1 -5.71-5.71v-106.59a5.71 5.71 0 0 1 5.71-5.71h8.57v96.12a5.71 5.71 0 0 0 5.71 5.71z" fill="#f58d89"/><path d="m90.61 159.1h-2.18v-.84a5.55 5.55 0 0 0 -11.09 0v.84h-2.18a33.26 33.26 0 0 0 -33.26 33.26h82a33.26 33.26 0 0 0 -33.29-33.26z" fill="#fff"/><rect fill="#fff" height="7.22" rx="3.61" width="91.29" x="37.24" y="196.89"/><path d="m162.46 295.6-74-44.6h45.54a6.51 6.51 0 0 0 0-13h-104.4a6.51 6.51 0 0 0 0 13h34.8a6.61 6.61 0 0 0 2 1.87l89.35 53.91a6.5 6.5 0 0 0 6.72-11.14z" fill="#4f4f74"/><circle cx="162.37" cy="393.79" fill="#32314b" r="44.32"/><circle cx="162.37" cy="393.79" fill="#fff" r="29.14"/><circle cx="162.37" cy="393.79" fill="#27273d" r="18.47"/><circle cx="398.24" cy="393.79" fill="#32314b" r="44.32"/><circle cx="398.24" cy="393.79" fill="#fff" r="29.14"/><circle cx="398.24" cy="393.79" fill="#27273d" r="18.47"/><path d="m128 249.19h144.17a13.57 13.57 0 0 1 13.57 13.57v36.24a59.23 59.23 0 0 1 -59.23 59.23h-112.09a0 0 0 0 1 0 0v-95.48a13.57 13.57 0 0 1 13.58-13.56z" fill="#b21818"/><path d="m285.72 262.25h-141.26a13.57 13.57 0 0 0 -13.56 13.57v82.46h-16.48v-95.53a13.56 13.56 0 0 1 13.58-13.56h144.16a13.56 13.56 0 0 1 13.56 13.06z" fill="#9e1818"/><path d="m285.73 373c0-48.91-59.08-88.56-105.68-88.56s-84.38 39.62-84.38 88.56z" fill="#db1b1b"/><path d="m448.09 382.22c0-30.89-29.54-55.93-52.84-55.93s-42.19 25-42.19 55.93z" fill="#db1b1b"/><path d="m349.65 263.53-8.52 63.29a42 42 0 0 1 -42 42h-203.74a12.5 12.5 0 0 0 -12.5 12.5 12.49 12.49 0 0 0 12.5 12.5h250.07a45.1 45.1 0 0 0 45.1-45.1l8.53-123.51h-11.09a38.36 38.36 0 0 0 -38.35 38.32z" fill="#aa60fa"/><path d="m399.09 225.18-.39 5.63a38.36 38.36 0 0 0 -37.11 38.33l-8.53 63.28a42 42 0 0 1 -42 42h-203.74a12.5 12.5 0 0 0 -10.43 19.39h-1.5a12.5 12.5 0 1 1 0-25h203.77a42 42 0 0 0 42-42l8.52-63.29a38.36 38.36 0 0 1 38.32-38.34z" fill="#934cf5"/><rect fill="#aa60fa" height="28.24" rx="14.12" width="146.67" x="127.99" y="220.94"/><path d="m274.65 235.05a14.12 14.12 0 0 1 -14.12 14.12h-118.43a14.1 14.1 0 0 1 -14.1-14.12 14.27 14.27 0 0 1 .65-4.26 14.25 14.25 0 0 0 3.48 5.72 14.08 14.08 0 0 0 10 4.14h118.4a14.12 14.12 0 0 0 13.47-9.86 14.27 14.27 0 0 1 .65 4.26z" fill="#934cf5"/><path d="m414.43 192.55v36.58a8.21 8.21 0 0 1 -8.21 8.2h-42.86a26.5 26.5 0 0 1 0-53h42.86a8.2 8.2 0 0 1 8.21 8.22z" fill="#db1b1b"/><path d="m414.43 192.55v36.58a8.21 8.21 0 0 1 -8.21 8.2h-8v-53h8a8.2 8.2 0 0 1 8.21 8.22z" fill="#f6d372"/><g fill="#b21818"><rect height="44.77" rx="9.38" width="18.75" x="139.71" y="314.59"/><rect height="44.77" rx="9.38" width="18.75" x="171.47" y="314.59"/><rect height="44.77" rx="9.38" width="18.75" x="203.23" y="314.59"/></g><circle cx="341.7" cy="210.83" fill="#aa60fa" r="15.91"/><path d="m345.11 226.36a15.36 15.36 0 0 1 -3.41.38 15.91 15.91 0 1 1 0-31.82 15.36 15.36 0 0 1 3.41.38 15.9 15.9 0 0 0 0 31.06z" fill="#934cf5"/><path d="m435.92 438.11a256 256 0 0 1 -359.84 0z" fill="#9e4830"/></g></svg>