<svg id="Layer_1" enable-background="new 0 0 512.186 512.186" height="512" viewBox="0 0 512.186 512.186" width="512" xmlns="http://www.w3.org/2000/svg"><g><g><g><g><ellipse cx="256.093" cy="256.093" fill="#ffeb00" rx="256.093" ry="256.008"/><path d="m256.093.085c-.03 0-.061.001-.091.001v512.013c.03 0 .061.001.091.001 141.436 0 256.093-114.618 256.093-256.008s-114.657-256.007-256.093-256.007z" fill="#fb0"/></g></g><g><path d="m201.765 215.802c-8.284 0-15-6.716-15-15 0-11.932-9.707-21.64-21.64-21.64s-21.64 9.708-21.64 21.64c0 8.284-6.716 15-15 15s-15-6.716-15-15c0-28.474 23.165-51.64 51.64-51.64s51.64 23.166 51.64 51.64c0 8.284-6.716 15-15 15z" fill="#132c63"/></g><g><path d="m382.093 215.802c-8.284 0-15-6.716-15-15 0-11.932-9.707-21.64-21.64-21.64s-21.64 9.708-21.64 21.64c0 8.284-6.716 15-15 15s-15-6.716-15-15c0-28.474 23.165-51.64 51.64-51.64s51.64 23.166 51.64 51.64c0 8.284-6.716 15-15 15z" fill="#000f35"/></g></g><g><path d="m256.302 416.707c-67.649 0-128.338-41.688-154.612-106.206-3.319-8.15.597-17.448 8.748-20.767 8.152-3.321 17.449.597 20.767 8.747 21.364 52.46 70.467 86.357 125.097 86.357s103.733-33.897 125.097-86.357c3.319-8.15 12.614-12.069 20.767-8.747 8.151 3.319 12.067 12.617 8.748 20.767-26.274 64.518-86.963 106.206-154.612 106.206z" fill="#132c63"/></g><path d="m402.166 289.734c-8.153-3.321-17.449.597-20.767 8.747-21.364 52.46-70.467 86.357-125.097 86.357-.101 0-.201-.006-.302-.006v31.872c.101 0 .201.003.302.003 67.649 0 128.338-41.688 154.612-106.206 3.319-8.15-.597-17.448-8.748-20.767z" fill="#000f35"/><circle cx="113.485" cy="288.552" fill="#ff001e" r="38.059"/><circle cx="397.093" cy="288.552" fill="#c30010" r="38.059"/></g></svg>